SplineFontDB: 3.2
FontName: HershoMono-Regular
FullName: Hersho Mono Regular
FamilyName: Hersho Mono
Weight: Regular
Copyright: Copyright (c) 2023, Sim Domingo
UComments: "2023-9-4: Created with FontForge (http://fontforge.org)"
Version: 001.000
ItalicAngle: 0
UnderlinePosition: -100
UnderlineWidth: 50
Ascent: 800
Descent: 200
InvalidEm: 0
LayerCount: 2
Layer: 0 0 "Back" 1
Layer: 1 0 "Fore" 0
XUID: [1021 39 -546803219 6476244]
StyleMap: 0x0000
FSType: 0
OS2Version: 0
OS2_WeightWidthSlopeOnly: 0
OS2_UseTypoMetrics: 1
CreationTime: 1693767096
ModificationTime: 315532800
PfmFamily: 17
TTFWeight: 400
TTFWidth: 5
LineGap: 90
VLineGap: 0
OS2TypoAscent: 0
OS2TypoAOffset: 1
OS2TypoDescent: 0
OS2TypoDOffset: 1
OS2TypoLinegap: 90
OS2WinAscent: 0
OS2WinAOffset: 1
OS2WinDescent: 0
OS2WinDOffset: 1
HheadAscent: 0
HheadAOffset: 1
HheadDescent: 0
HheadDOffset: 1
OS2Vendor: 'PfEd'
MarkAttachClasses: 1
DEI: 91125
LangName: 1033
Encoding: ISO8859-1
UnicodeInterp: none
NameList: AGL For New Fonts
DisplaySize: -48
AntiAlias: 1
FitToEm: 0
WinInfo: 27 27 9
BeginPrivate: 0
EndPrivate
TeXData: 1 0 0 522190 261095 174063 489685 1048576 174063 783286 444596 497025 792723 393216 433062 380633 303038 157286 324010 404750 52429 2506097 1059062 262144
BeginChars: 256 95

StartChar: o
Encoding: 111 111 0
Width: 498
Flags: W
HStem: 0 130<141.957 256.005> 362 118<142.311 256.435>
VStem: 0 100<173.798 318.855> 298 100<173.552 319.093>
LayerCount: 2
Fore
SplineSet
0 245 m 4
 0 386 85 480 199 480 c 4
 313 480 398 385 398 245 c 4
 398 105 313 0 199 0 c 4
 86 0 0 104 0 245 c 4
298 245 m 4
 298 315 253 362 199 362 c 4
 144 362 100 313 100 245 c 4
 100 176 146 130 199 130 c 4
 251 130 298 174 298 245 c 4
EndSplineSet
Validated: 1
EndChar

StartChar: n
Encoding: 110 110 1
Width: 498
Flags: W
HStem: 0 21G<0 100 298 398> 0 21G<0 100 298 398> 391 92<122.328 272.656>
VStem: 0 100<0 344 458 483> 298 100<0 343>
LayerCount: 2
Fore
SplineSet
1 483 m 1xb8
 100 483 l 1
 100 458 l 1
 128 471 185 483 222 483 c 3
 258 483 397 452 397 350 c 2
 398 0 l 1
 298 0 l 5
 298 343 l 6
 298 343 275 391 198 391 c 3
 120 391 100 344 100 344 c 2
 100 0 l 1
 0 0 l 1
 0 162 0 323 1 483 c 1xb8
EndSplineSet
Validated: 1
EndChar

StartChar: h
Encoding: 104 104 2
Width: 498
Flags: W
HStem: 0 21G<0 100.061 298 398> 0 21G<0 100.061 298 398> 379 102<115.737 283.818>
VStem: 1 100<0 361.872 458 797> 298 100<0 359.921>
LayerCount: 2
Fore
SplineSet
1 797 m 5xb8
 101 797 l 5
 101 458 l 5
 130 471 177 481 214 481 c 7
 251 481 395 455 396 345 c 6
 398 0 l 5
 298 0 l 5
 299 329 l 6
 299 356 263 379 214 379 c 7
 164 379 101 370 101 329 c 6
 100 0 l 5
 0 0 l 5
 1 797 l 5xb8
EndSplineSet
Validated: 1
EndChar

StartChar: i
Encoding: 105 105 4
Width: 498
Flags: W
HStem: 1 100<246 398> 357 100<0 148> 524 136<135.222 229.682>
VStem: 116 132<542.722 641.704> 148 100<101 357>
LayerCount: 2
Fore
SplineSet
192 659 m 4xf0
 223 653 248 627 248 594 c 4
 248 556 219 524 181 524 c 4
 177 524 172 524 168 525 c 4
 140 530 116 552 116 586 c 4
 116 588 116 590 116 592 c 4
 119 628 144 660 180 660 c 4
 184 660 188 660 192 659 c 4xf0
0 357 m 1
 0 457 l 1
 198 457 l 2
 226 457 248 435 248 407 c 0
 247 181 246 115 246 101 c 1
 398 101 l 1
 398 1 l 1
 195 1 l 2
 167 1 145 23 145 51 c 0
 148 357 l 1xe8
 0 357 l 1
EndSplineSet
Validated: 1
EndChar

StartChar: j
Encoding: 106 106 5
Width: 498
Flags: W
HStem: -200 104<138.223 270.765> 358 100<219 295> 524 136<285.315 379.498>
VStem: 0 106<-63.09 27> 219 175<358 448.299> 267 131<542.042 641.935> 296 99<-64.4906 357>
LayerCount: 2
Fore
SplineSet
343 659 m 0xf4
 375 653 398 625 398 592 c 0
 398 554 368 524 331 524 c 0
 327 524 322 524 318 525 c 0
 287 530 267 555 267 588 c 0
 267 590 267 592 267 594 c 0
 270 632 297 660 331 660 c 0
 335 660 339 660 343 659 c 0xf4
199 -200 m 3
 61 -200 3 -115 0 27 c 5
 106 27 l 5
 106 -31 117 -96 203 -96 c 3
 286 -96 296 -74 296 149 c 0xf2
 296 205 295 273 295 357 c 1
 219 358 l 1
 219 417 219 458 219 458 c 1
 337 457 364 457 364 457 c 0
 345 457 l 2
 372 457 394 434 394 407 c 0xf8
 394 317 395 241 395 175 c 0xf2
 395 -151 376 -200 199 -200 c 3
EndSplineSet
Validated: 1
EndChar

StartChar: s
Encoding: 115 115 6
Width: 498
Flags: W
HStem: 4 76<132.816 257.886> 194 86<145.4 271.556> 391 88<143.379 255.552>
VStem: 17 114<293.203 378.152> 284 113<106.386 181.837 317 361.668>
LayerCount: 2
Fore
SplineSet
192 280 m 3
 245 280 397 246 397 147 c 3
 397 66 318 4 192 4 c 3
 103 4 0 65 0 143 c 0
 112 143 l 3
 112 102 160 80 192 80 c 3
 237 80 284 110 284 147 c 3
 284 181 253 194 192 194 c 3
 110 194 17 273 17 332 c 3
 17 411 105 479 192 479 c 3
 285 479 398 419 398 317 c 19
 284 317 l 1
 284 371 223 391 192 391 c 3
 153 391 131 363 131 333 c 3
 131 306 155 280 192 280 c 3
EndSplineSet
Validated: 1
EndChar

StartChar: v
Encoding: 118 118 7
Width: 498
Flags: W
HStem: 1 21G<141.859 252.36> 1 21G<141.859 252.36> 463 20G<0 104.824 293.929 398>
LayerCount: 2
Fore
SplineSet
148 1 m 1xa0
 0 483 l 1
 99 483 l 1
 198 143 l 1
 300 479 l 1
 398 479 l 1
 246 1 l 1
 148 1 l 1xa0
EndSplineSet
Validated: 1
EndChar

StartChar: w
Encoding: 119 119 8
Width: 498
Flags: W
HStem: 447 20G<0 101.386>
VStem: 0 100<425.074 465> 81 100<3 42.9259> 179 48<351.125 382> 223 100<3 46.12> 301 97<421.88 463>
LayerCount: 2
Fore
SplineSet
0 465 m 5xc0
 100 467 l 5
 123 135 l 1
 179 382 l 5
 227 383 l 5
 273 132 l 1
 301 463 l 5
 398 465 l 5xd4
 323 3 l 1
 223 3 l 1
 216 47 210 249 203 291 c 1
 197 249 188 47 181 3 c 1
 81 3 l 1xa8
 0 465 l 5xc0
EndSplineSet
Validated: 1
EndChar

StartChar: d
Encoding: 100 100 9
Width: 498
Flags: W
HStem: 0 130<141.085 255.983> 362 118<140.731 256.151> 781 20G<300 398>
VStem: 0 100<173.84 319.261> 300 98<2 33 178.007 313.993 450 799>
LayerCount: 2
Fore
SplineSet
296 246 m 0
 296 312 254 362 198 362 c 4
 141 362 100 312 100 246 c 0
 100 180 141 130 198 130 c 4
 254 130 296 180 296 246 c 0
0 245 m 0
 0 383 82 480 198 480 c 4
 236 480 270 470 300 450 c 1
 300 799 l 1
 398 801 l 1
 398 2 l 1
 300 0 l 1
 300 33 l 1
 270 11 235 0 198 0 c 4
 84 0 0 105 0 245 c 0
EndSplineSet
Validated: 1
EndChar

StartChar: p
Encoding: 112 112 10
Width: 498
Flags: W
HStem: -1 118<141.303 256.478> 349 130<141.472 256.124>
VStem: 0 98<-200 29 165.007 300.993 446 477> 298 100<159.739 305.16>
LayerCount: 2
Fore
SplineSet
102 233 m 0
 102 167 143 117 199 117 c 4
 256 117 298 167 298 233 c 4
 298 299 256 349 199 349 c 4
 143 349 102 299 102 233 c 0
398 234 m 4
 398 96 315 -1 199 -1 c 7
 161 -1 128 9 98 29 c 1
 98 -200 l 1
 0 -202 l 1
 0 477 l 1
 98 479 l 1
 98 446 l 1
 128 468 162 479 199 479 c 7
 313 479 398 374 398 234 c 4
EndSplineSet
Validated: 1
EndChar

StartChar: b
Encoding: 98 98 11
Width: 498
Flags: W
HStem: 0 130<141.472 256.124> 362 118<141.303 256.478> 781 20G<0 98>
VStem: 0 98<2 33 178.007 313.993 450 799> 298 100<173.84 319.261>
LayerCount: 2
Fore
SplineSet
102 246 m 4
 102 180 143 130 199 130 c 4
 256 130 298 180 298 246 c 4
 298 312 256 362 199 362 c 4
 143 362 102 312 102 246 c 4
398 245 m 4
 398 105 313 0 199 0 c 4
 162 0 128 11 98 33 c 5
 98 0 l 5
 0 2 l 5
 0 801 l 5
 98 799 l 5
 98 450 l 5
 128 470 161 480 199 480 c 4
 315 480 398 383 398 245 c 4
EndSplineSet
Validated: 1
EndChar

StartChar: q
Encoding: 113 113 12
Width: 498
Flags: W
HStem: 1 118<141.522 256.697> 351 130<141.876 256.528>
VStem: 0 100<161.739 307.16> 300 98<-198 31 167.007 302.993 448 479>
LayerCount: 2
Fore
SplineSet
296 235 m 0
 296 301 255 351 199 351 c 0
 142 351 100 301 100 235 c 0
 100 169 142 119 199 119 c 0
 255 119 296 169 296 235 c 0
0 236 m 0
 0 376 85 481 199 481 c 3
 236 481 270 470 300 448 c 1
 300 481 l 1
 398 479 l 1
 398 -200 l 1
 300 -198 l 1
 300 31 l 1
 270 11 237 1 199 1 c 3
 83 1 0 98 0 236 c 0
EndSplineSet
Validated: 1
EndChar

StartChar: g
Encoding: 103 103 13
Width: 498
Flags: W
HStem: -202 104<138.805 278.308> -20 20G<0 106> -20 20G<0 106> 0 130<143.07 257.25> 362 118<137.439 250.006>
VStem: 0 100<-59.1328 0 178.533 321.949> 290 107<-79.826 28 164.609 320.353 454 478.927>
LayerCount: 2
Fore
SplineSet
290 254 m 7x9e
 290 308 246 362 199 362 c 3
 143 362 100 320 100 254 c 7
 100 188 143 130 199 130 c 3
 277 130 290 205 290 254 c 7x9e
0 254 m 7
 0 392 83 480 199 480 c 3
 234 480 267 471 296 454 c 1
 296 479 l 1
 398 479 l 1
 398 479 397 379 397 254 c 7
 397 232 397 211 397 191 c 0
 397 -177 392 -202 191 -202 c 7
 43 -202 0 -48 0 0 c 0
 106 0 l 3xce
 106 -64 146 -98 198 -98 c 3
 249 -98 294 -85 294 -39 c 2
 295 28 l 1
 266 10 233 0 199 0 c 0
 85 0 0 114 0 254 c 7
EndSplineSet
Validated: 1
EndChar

StartChar: e
Encoding: 101 101 14
Width: 498
Flags: W
HStem: 0 124<152.126 271.261> 217 65<109 289> 367 110<152.66 253.845>
VStem: 0 109<172.053 217>
LayerCount: 2
Fore
SplineSet
-392 574 m 1049
289 282 m 1
 277 322 255 367 199 367 c 0
 180 367 129 344 109 282 c 1
 289 282 l 1
201 124 m 31
 247 124 297 162 297 162 c 26
 362 97 l 17
 362 97 309 0 200 0 c 0
 110 0 0 108 0 246 c 3
 0 399 115 477 200 477 c 0
 319 477 398 375 398 240 c 2
 398 217 l 1
 109 217 l 1
 109 192 151 124 201 124 c 31
EndSplineSet
Validated: 1
EndChar

StartChar: c
Encoding: 99 99 15
Width: 498
Flags: W
HStem: 0 130<152.259 276.455> 362 118<152.689 278.919>
VStem: 0 107<174.876 314.878>
LayerCount: 2
Fore
SplineSet
299 319 m 1025
398 372 m 1025
392 104 m 1
 354 40 291 0 214 0 c 0
 92 0 0 104 0 245 c 0
 0 386 91 480 214 480 c 0
 296 480 361 440 398 372 c 9
 398 372 323 333 299 319 c 1
 280 346 248 362 214 362 c 0
 154 362 107 313 107 245 c 0
 107 176 156 130 214 130 c 0
 243 130 270 141 289 162 c 1
 334 138 343 136 392 104 c 1
EndSplineSet
Validated: 1
EndChar

StartChar: a
Encoding: 97 97 16
Width: 498
Flags: W
HStem: 0 78<128.146 266.491> 217 71<125.806 272.833> 374 99<132.429 261.051>
VStem: 0 100<105.327 191.851> 296 102<0 17 106.258 147 147.125 193.865 272 341.138>
LayerCount: 2
Fore
SplineSet
397 339 m 0
 398 320 398 147 398 147 c 1
 398 0 l 1
 296 0 l 1
 296 17 l 1
 267 6 234 0 199 0 c 0
 85 0 0 63 0 147 c 0
 0 230 83 288 198 288 c 0
 235 288 267 282 296 272 c 1
 295 319 l 1
 263 361 229 374 199 374 c 0
 144 374 99 329 97 329 c 2
 57 363 l 1
 34 381 l 1
 34 382 l 2
 34 393 115 472 204 473 c 2
 205 473 l 2
 287 473 394 407 397 339 c 0
199 217 m 0
 135 217 100 185 100 149 c 0
 100 106 149 78 199 78 c 0
 253 78 294 111 294 152 c 0
 294 192 255 217 199 217 c 0
EndSplineSet
Validated: 1
EndChar

StartChar: x
Encoding: 120 120 17
Width: 498
Flags: W
HStem: 0 23G<0 110.647 287.857 398> 462 20G<0 110.647 287.857 398>
LayerCount: 2
Fore
SplineSet
147 241 m 1
 0 482 l 1
 99 482 l 1
 198 312 l 1
 300 480 l 1
 398 480 l 1
 246 241 l 1
 398 2 l 1
 300 2 l 1
 198 170 l 1
 99 0 l 1
 0 0 l 1
 147 241 l 1
EndSplineSet
Validated: 1
EndChar

StartChar: y
Encoding: 121 121 18
Width: 498
Flags: W
HStem: 463 20G<0 104.824 293.929 398>
LayerCount: 2
Fore
SplineSet
148 6 m 5
 0 483 l 1
 99 483 l 1
 198 143 l 1
 300 479 l 1
 398 479 l 1
 188 -200 l 1
 90 -200 l 1
 148 6 l 5
EndSplineSet
Validated: 1
EndChar

StartChar: u
Encoding: 117 117 19
Width: 498
Flags: W
HStem: 0 92<125.344 275.672> 463 20G<0 100 298 398>
VStem: 1 99<140 483> 298 99<0 25 139 483>
LayerCount: 2
Fore
SplineSet
397 0 m 5
 298 0 l 5
 298 25 l 5
 270 12 213 0 176 0 c 7
 140 0 1 31 1 133 c 6
 0 483 l 5
 100 483 l 5
 100 140 l 6
 100 140 123 92 200 92 c 7
 278 92 298 139 298 139 c 6
 298 483 l 5
 398 483 l 5
 398 321 398 160 397 0 c 5
EndSplineSet
Validated: 1
EndChar

StartChar: l
Encoding: 108 108 20
Width: 498
Flags: W
HStem: 794 20G<118.915 221>
VStem: 155 100<88 714>
LayerCount: 2
Fore
SplineSet
398 135 m 1
 398 35 l 1
 205 -12 l 1
 177 -12 155 10 155 38 c 0
 155 69 155 99 155 129 c 2
 157 714 l 1
 0 667 l 1
 0 767 l 1
 207 814 l 1
 235 814 257 792 257 764 c 0
 257 733 257 703 257 673 c 2
 255 88 l 1
 398 135 l 1
EndSplineSet
Validated: 1
EndChar

StartChar: r
Encoding: 114 114 21
Width: 498
Flags: W
HStem: 0 21G<0 100> 0 21G<0 100> 392 91<114.556 208>
VStem: 0 101<0 343.972 344 375.887 458 483>
LayerCount: 2
Fore
SplineSet
0 483 m 1xb0
 101 483 l 1
 101 458 l 1
 129 471 171 483 208 483 c 0
 208 483 339 479 398 377 c 1
 330 338 l 1
 330 336 l 1
 330 344 261 392 207 392 c 0
 159 392 101 382 101 344 c 2
 101 344 100 307 100 0 c 1
 0 0 l 1
 0 162 0 323 0 483 c 1xb0
EndSplineSet
Validated: 1
EndChar

StartChar: m
Encoding: 109 109 22
Width: 498
Flags: HMW
LayerCount: 2
Fore
SplineSet
0 476 m 1
 67 476 l 1
 67 448 l 1
 67 448 77 477 120 477 c 0
 180 477 202 421 202 421 c 1
 202 421 237 476 294 476 c 0
 362 476 398 398 398 357 c 2
 398 0 l 1
 325 0 l 1
 325 351 l 1
 325 351 321 389 278 389 c 0
 235 389 234 351 234 351 c 1
 234 0 l 1
 161 0 l 1
 161 351 l 2
 161 354 160 389 119 389 c 0
 76 389 74 351 74 351 c 1
 74 0 l 1
 0 0 l 1
 0 476 l 1
EndSplineSet
Validated: 1
EndChar

StartChar: t
Encoding: 116 116 23
Width: 498
Flags: W
HStem: 1 92<246.142 397.947> 353 117<0 145 244 392> 779 20G<145 244>
VStem: 145 99<95.7762 353 470 799>
LayerCount: 2
Fore
SplineSet
286 93 m 15
 325 93 398 91 398 91 c 5
 398 0 l 5
 359 0 367 1 242 1 c 4
 155 1 144 65 144 146 c 0
 144 172 145 201 145 229 c 6
 145 353 l 5
 0 353 l 5
 0 470 l 5
 145 470 l 5
 145 799 l 5
 244 799 l 5
 244 470 l 5
 392 470 l 5
 392 353 l 5
 244 353 l 5
 244 353 244 307 244 229 c 31
 244 227 244 225 244 223 c 7
 244 192 243 168 243 150 c 0
 243 106 249 93 286 93 c 15
EndSplineSet
Validated: 1
EndChar

StartChar: f
Encoding: 102 102 24
Width: 498
Flags: W
HStem: 375 101<0 67 166 229> 699 100<186.013 277.309>
VStem: 67 99<-7 375 476 678.562> 298 100<560 679.034>
LayerCount: 2
Fore
SplineSet
398 560 m 1
 298 559 l 1
 298 564 298 569 298 574 c 0
 298 635 295 699 229 699 c 0
 167 699 166 630 166 569 c 0
 166 567 166 565 166 563 c 2
 166 476 l 1
 229 476 l 1
 229 375 l 5
 166 375 l 5
 166 -7 l 1
 67 -7 l 1
 67 375 l 5
 0 375 l 5
 0 476 l 1
 67 476 l 1
 67 563 l 2
 67 678 112 799 228 799 c 0
 353 799 398 682 398 560 c 1
EndSplineSet
Validated: 1
EndChar

StartChar: k
Encoding: 107 107 25
Width: 498
Flags: W
HStem: 0 21G<0 99 288.558 398> 0 21G<0 99 288.558 398> 780 20G<0.975 100>
VStem: 0 100<0 157 275 800>
LayerCount: 2
Fore
SplineSet
1 800 m 1xb0
 100 800 l 1
 100 275 l 1
 281 448 l 1
 398 448 l 1
 257 290 l 1
 398 0 l 1
 299 0 l 1
 181 226 l 5
 98 157 l 1
 99 0 l 1
 0 0 l 1
 1 800 l 1xb0
EndSplineSet
Validated: 1
EndChar

StartChar: z
Encoding: 122 122 26
Width: 498
Flags: W
HStem: 0 91<140 398> 384 97<0 277>
LayerCount: 2
Fore
SplineSet
0 481 m 1
 398 481 l 1
 398 384 l 1
 140 91 l 1
 398 91 l 1
 398 0 l 1
 0 0 l 1
 0 91 l 1
 277 384 l 1
 0 384 l 1
 0 481 l 1
EndSplineSet
Validated: 1
EndChar

StartChar: H
Encoding: 72 72 27
Width: 498
Flags: W
HStem: 0 21G<0 103 295 398> 0 21G<0 103 295 398> 380 78<103 295> 779 20G<0 103 295 398>
VStem: 0 103<0 380 458 799> 295 103<0 380 458 799>
LayerCount: 2
Fore
SplineSet
0 799 m 1xbc
 103 799 l 1
 103 458 l 1
 295 458 l 5
 295 799 l 5
 398 799 l 5
 398 0 l 5
 295 0 l 5
 295 380 l 5
 103 380 l 1
 103 0 l 1
 0 0 l 1
 0 799 l 1xbc
EndSplineSet
Validated: 1
EndChar

StartChar: O
Encoding: 79 79 28
Width: 498
Flags: W
HStem: 0 116<137.224 258.509> 693 106<147.587 254.135>
VStem: 0 102<199.018 593.143> 298 100<199.038 613.186>
LayerCount: 2
Fore
SplineSet
0 412 m 24
 0 637 83 799 198 799 c 3
 326 799 398 659 398 412 c 24
 398 150 325 0 198 0 c 0
 71 0 0 147 0 412 c 24
298 412 m 27
 298 626 278 693 198 693 c 3
 127 693 102 612 102 417 c 0
 102 415 102 414 102 412 c 0
 102 407 102 403 102 398 c 0
 102 162 115 116 198 116 c 4
 282 116 298 174 298 412 c 27
EndSplineSet
Validated: 1
EndChar

StartChar: A
Encoding: 65 65 29
Width: 498
Flags: W
HStem: 0 21G<0 105.351 282.393 398> 0 21G<0 105.351 282.393 398> 191 81<143 230> 779 20G<123.821 234.205>
LayerCount: 2
Fore
SplineSet
184 682 m 5x30
 143 272 l 5
 230 272 l 5
 184 682 l 5x30
127 799 m 5
 230 799 l 5
 398 0 l 5
 287 0 l 5
 243 191 l 5
 134 191 l 5
 102 0 l 5
 0 0 l 5xb0
 127 799 l 5
EndSplineSet
Validated: 1
EndChar

StartChar: E
Encoding: 69 69 30
Width: 498
Flags: W
HStem: 0 101<103 398> 368 90<103 270> 704 95<103 398>
VStem: 0 103<101 368 458 704>
LayerCount: 2
Fore
SplineSet
398 800 m 1
 398 705 l 1
 103 704 l 1
 103 458 l 1
 271 458 l 1
 270 368 l 1
 103 368 l 1
 103 101 l 1
 398 102 l 1
 398 0 l 1
 0 0 l 1
 0 799 l 1
 398 800 l 1
EndSplineSet
Validated: 1
EndChar

StartChar: S
Encoding: 83 83 31
Width: 498
Flags: W
HStem: 0 116<169.844 264.973> 704 96<133.56 232.271>
VStem: 0 109<565.638 679.278> 291 107<137.562 257.192>
LayerCount: 2
Fore
SplineSet
389 587 m 5
 281 587 l 5
 281 587 259 704 186 704 c 4
 153 704 109 680 109 625 c 7
 109 483 398 440 398 228 c 4
 398 145 354 0 210 0 c 4
 26 0 8 238 8 238 c 5
 126 238 l 5
 126 238 134 116 219 116 c 0
 220 116 220 116 221 116 c 4
 283 117 291 180 291 212 c 0
 291 224 290 231 290 231 c 5
 290 344 0 410 0 601 c 4
 0 708 92 800 196 800 c 4
 353 800 389 587 389 587 c 5
EndSplineSet
Validated: 1
EndChar

StartChar: I
Encoding: 73 73 32
Width: 498
Flags: W
HStem: 1 93<0 147 255 398> 709 92<0 147 255 398>
VStem: 147 108<94 709>
LayerCount: 2
Fore
SplineSet
0 801 m 5
 398 801 l 5
 398 709 l 5
 255 709 l 5
 255 94 l 5
 398 94 l 5
 398 1 l 5
 0 1 l 5
 0 94 l 5
 147 94 l 5
 147 709 l 5
 0 709 l 5
 0 801 l 5
EndSplineSet
Validated: 1
EndChar

StartChar: N
Encoding: 78 78 33
Width: 498
Flags: W
HStem: 0 21G<0 104 288.117 398> 0 21G<0 104 288.117 398> 779 20G<0 111.061 295 398>
VStem: 0 104<0 555> 295 103<258 799>
LayerCount: 2
Fore
SplineSet
0 799 m 5xb8
 104 799 l 5
 295 258 l 5
 295 799 l 5
 398 799 l 5
 398 0 l 5
 295 0 l 5
 104 555 l 5
 104 0 l 5
 0 0 l 5
 0 799 l 5xb8
EndSplineSet
Validated: 1
EndChar

StartChar: L
Encoding: 76 76 34
Width: 498
Flags: W
HStem: 0 101<103 398> 780 20G<0 103>
VStem: 0 103<101 799>
LayerCount: 2
Fore
SplineSet
103 800 m 1
 103 101 l 1
 398 102 l 1
 398 0 l 1
 0 0 l 1
 0 799 l 1
 103 800 l 1
EndSplineSet
Validated: 1
EndChar

StartChar: Z
Encoding: 90 90 35
Width: 498
Flags: W
HStem: 0 104<112 398> 698 102<0 286>
LayerCount: 2
Fore
SplineSet
0 0 m 5
 0 104 l 5
 286 698 l 5
 0 698 l 5
 0 800 l 5
 398 800 l 5
 398 698 l 5
 112 104 l 5
 398 104 l 5
 398 0 l 5
 0 0 l 5
EndSplineSet
Validated: 1
EndChar

StartChar: V
Encoding: 86 86 36
Width: 498
Flags: W
HStem: 1 21G<144.295 249.805> 1 21G<144.295 249.805> 780 20G<0 102.014 296.895 398>
VStem: 0 99<762.209 800> 300 98<763.204 800>
LayerCount: 2
Fore
SplineSet
148 1 m 5xb8
 0 800 l 5
 99 800 l 5
 198 143 l 5
 300 800 l 5
 398 800 l 5
 246 1 l 5
 148 1 l 5xb8
EndSplineSet
Validated: 1
EndChar

StartChar: P
Encoding: 80 80 37
Width: 498
Flags: W
HStem: 0 21G<0 103> 0 21G<0 103> 368 84<106 248.376> 699 99<106 252.156>
VStem: 0 103<0 368 452 698> 304 94<512.163 648.16>
LayerCount: 2
Fore
SplineSet
106 698 m 0x3c
 106 452 l 19
 128 452 140 452 191 452 c 7
 249 452 304 515 304 582 c 7
 304 645 252 699 191 699 c 7
 146 699 148 698 106 698 c 0x3c
237 368 m 15
 122 368 103 368 103 368 c 1
 103 0 l 1
 0 0 l 1xbc
 0 798 l 1
 0 798 82 798 237 798 c 23
 318 798 398 691 398 582 c 7
 398 475 318 368 237 368 c 15
EndSplineSet
Validated: 1
EndChar

StartChar: T
Encoding: 84 84 38
Width: 498
Flags: W
HStem: 1 21G<147 255> 1 21G<147 255> 709 92<0 147 255 398>
VStem: 147 108<1 709>
LayerCount: 2
Fore
SplineSet
0 801 m 1xb0
 398 801 l 1
 398 709 l 1
 255 709 l 1
 255 473 255 237 255 1 c 1
 147 1 l 1
 147 709 l 1
 0 709 l 1
 0 801 l 1xb0
EndSplineSet
Validated: 1
EndChar

StartChar: M
Encoding: 77 77 39
Width: 498
Flags: W
HStem: 0 21G<0 103 295 398> 0 21G<0 103 295 398> 780 20G<0 108.831 288.239 398>
VStem: 0 103<0 561> 295 103<0 561>
LayerCount: 2
Fore
SplineSet
0 799 m 1xb8
 102 800 l 1
 199 516 l 1
 295 800 l 1
 398 799 l 1
 398 0 l 1
 295 0 l 1
 295 561 l 5
 200 322 l 1
 103 561 l 5
 103 0 l 1
 0 0 l 1
 0 799 l 1xb8
EndSplineSet
Validated: 1
EndChar

StartChar: F
Encoding: 70 70 40
Width: 498
Flags: W
HStem: 0 21G<0 103> 0 21G<0 103> 368 90<103 270> 704 95<103 398>
VStem: 0 103<0 368 458 704>
LayerCount: 2
Fore
SplineSet
398 800 m 5xb8
 398 705 l 5
 103 704 l 5
 103 458 l 5
 271 458 l 5
 270 368 l 5
 103 368 l 5
 103 0 l 5
 0 0 l 5
 0 799 l 5
 398 800 l 5xb8
EndSplineSet
Validated: 1
EndChar

StartChar: X
Encoding: 88 88 41
Width: 498
Flags: W
HStem: 0 21G<0 109.742 288.419 398> 0 21G<0 109.742 288.419 398> 780 20G<0 106.24 292.832 398>
LayerCount: 2
Fore
SplineSet
154 423 m 1xa0
 0 800 l 1
 99 800 l 1
 200 521 l 1
 300 800 l 1
 398 800 l 1
 241 424 l 5
 398 0 l 1
 295 0 l 1
 193 310 l 1
 104 0 l 1
 0 0 l 1
 154 423 l 1xa0
EndSplineSet
Validated: 1
EndChar

StartChar: Y
Encoding: 89 89 42
Width: 498
Flags: W
HStem: 0 21G<151 244> 0 21G<151 244> 780 20G<0 105.037 293.78 398>
VStem: 151 93<0 401>
LayerCount: 2
Fore
SplineSet
151 401 m 5xb0
 0 800 l 5
 99 800 l 5
 198 472 l 5
 300 800 l 5
 398 800 l 5
 244 401 l 5
 244 0 l 5
 151 0 l 5
 151 401 l 5xb0
EndSplineSet
Validated: 1
EndChar

StartChar: Q
Encoding: 81 81 43
Width: 498
Flags: W
HStem: 0 116<136.533 226.388> 693 106<151.42 256.985>
VStem: 0 102<189.269 582.274> 298 100<202.234 612.669>
LayerCount: 2
Fore
SplineSet
298 397 m 0
 298 632 276 693 206 693 c 0
 128 693 102 617 102 415 c 0
 102 415 102 414 102 410 c 0
 102 406 102 403 102 403 c 0
 102 158 117 116 197 116 c 0
 209 116 219 117 227 119 c 1
 134 279 l 1
 240 280 l 1
 286 199 l 1
 295 241 298 303 298 397 c 0
0 382 m 0
 0 636 83 799 209 799 c 0
 326 799 398 660 398 408 c 0
 398 278 379 171 342 100 c 1
 398 0 l 1
 296 0 l 1
 281 26 l 1
 257 9 229 0 198 0 c 0
 71 0 0 147 0 382 c 0
EndSplineSet
Validated: 1
EndChar

StartChar: U
Encoding: 85 85 44
Width: 498
Flags: W
HStem: 0 116<141.314 256.831> 780 20G<0 97 301 398>
VStem: 0 93<181.553 800> 307 91<187.514 801>
LayerCount: 2
Fore
SplineSet
0 800 m 22
 97 800 l 5
 95 680 93 519 93 411 c 4
 93 181 117 116 200 116 c 4
 282 116 307 185 307 411 c 4
 307 560 301 649 301 801 c 5
 398 801 l 5
 398 620 398 337 398 337 c 6
 398 88 346 0 198 0 c 4
 52 0 0 88 0 337 c 6
 0 800 l 22
EndSplineSet
Validated: 1
EndChar

StartChar: R
Encoding: 82 82 45
Width: 498
Flags: W
HStem: 0 21G<0 103 288.098 398> 0 21G<0 103 288.098 398> 368 84<106 168> 699 99<106 252.134>
VStem: 0 103<0 368 452 698> 304 92<510.195 648.16>
LayerCount: 2
Fore
SplineSet
106 698 m 5x3c
 106 452 l 5
 128 452 140 452 191 452 c 4
 249 452 304 515 304 582 c 4
 304 645 252 699 191 699 c 4
 146 699 148 698 106 698 c 5x3c
168 368 m 5
 103 368 l 5
 103 0 l 5
 0 0 l 5
 0 798 l 5
 0 798 82 798 237 798 c 4
 318 798 396 691 396 582 c 4
 396 488 336 397 266 375 c 5
 398 0 l 5
 295 0 l 5xbc
 168 368 l 5
EndSplineSet
Validated: 1
EndChar

StartChar: D
Encoding: 68 68 46
Width: 498
Flags: W
HStem: 0 88<106 199.623> 695 103<106 204.016>
VStem: 0 106<88 694> 304 94<259.655 538.077>
LayerCount: 2
Fore
SplineSet
106 694 m 4
 106 88 l 23
 128 88 104 88 155 88 c 7
 213 88 304 230 304 399 c 7
 304 576 216 695 155 695 c 7
 110 695 148 694 106 694 c 4
201 0 m 14
 0 0 l 5
 0 798 l 5
 0 798 46 798 201 798 c 23
 282 798 398 620 398 399 c 7
 398 198 282 0 201 0 c 14
EndSplineSet
Validated: 1
EndChar

StartChar: K
Encoding: 75 75 47
Width: 498
Flags: W
HStem: 0 21G<0 104 274.691 396> 0 21G<0 104 274.691 396> 780 20G<0 104 274.939 398>
VStem: 0 104<0 243 553 800>
LayerCount: 2
Fore
SplineSet
104 243 m 5xb0
 104 0 l 1
 0 0 l 1
 0 800 l 1
 104 800 l 1
 104 553 l 1
 290 800 l 1
 398 800 l 1
 104 400 l 1
 396 0 l 1
 290 0 l 1
 104 243 l 5xb0
EndSplineSet
Validated: 1
EndChar

StartChar: B
Encoding: 66 66 48
Width: 498
Flags: W
HStem: 0 84<104 244.964> 331 121<106 249.283> 699 99<106 253.561>
VStem: 0 104<84 330 452 698> 302 94<144.163 280.996 506.866 650.368>
LayerCount: 2
Fore
SplineSet
313 398 m 5
 361 358 396 287 396 214 c 4
 396 107 343 0 235 0 c 6
 0 0 l 5
 0 798 l 5
 0 798 82 798 237 798 c 4
 337 798 398 687 398 581 c 4
 398 509 362 437 313 398 c 5
106 698 m 5
 106 452 l 5
 128 452 140 452 191 452 c 4
 249 452 304 514 304 581 c 4
 304 644 252 699 191 699 c 4
 146 699 148 698 106 698 c 5
104 330 m 5
 104 84 l 5
 126 84 138 84 189 84 c 4
 247 84 302 147 302 214 c 4
 302 277 250 331 189 331 c 4
 144 331 146 330 104 330 c 5
EndSplineSet
Validated: 1
EndChar

StartChar: C
Encoding: 67 67 49
Width: 498
Flags: W
HStem: 0 118<148.517 282.565> 693 106<149.597 275.942>
VStem: 0 102<197.077 592.283> 298 100<132.751 228 588 668.625>
LayerCount: 2
Fore
SplineSet
396 588 m 7
 294 562 l 4
 294 675 281 693 201 693 c 4
 128 693 102 615 102 398 c 7
 102 194 129 118 201 118 c 7
 291 118 298 128 298 255 c 7
 398 228 l 4
 398 60 345 0 199 0 c 4
 72 0 0 148 0 412 c 4
 0 635 85 799 201 799 c 4
 340 799 396 738 396 588 c 7
EndSplineSet
Validated: 1
EndChar

StartChar: G
Encoding: 71 71 50
Width: 498
Flags: W
HStem: 0 118<150.493 255.875> 308 78<202 302> 693 106<146.863 274.228>
VStem: 0 102<196.006 609.774> 292 102<563 673.45> 302 96<179.165 308>
LayerCount: 2
Fore
SplineSet
394 563 m 5xf8
 292 562 l 5xf8
 292 675 279 693 199 693 c 4
 126 693 102 628 102 411 c 0
 102 207 127 118 199 118 c 4
 282 118 300 208 302 308 c 5
 202 308 l 5
 202 386 l 5
 398 386 l 7xf4
 398 211 368 0 197 0 c 4
 70 0 0 148 0 412 c 0
 0 635 66 798 199 799 c 4
 200 799 200 799 201 799 c 0
 338 799 394 712 394 563 c 5xf8
EndSplineSet
Validated: 1
EndChar

StartChar: J
Encoding: 74 74 51
Width: 498
Flags: W
HStem: 0 116<138.65 256.831> 781 20G<301 398>
VStem: 0 97<167.162 252> 307 91<187.514 801>
LayerCount: 2
Fore
SplineSet
0 252 m 9
 97 252 l 1
 109 149 141 116 200 116 c 4
 282 116 307 185 307 411 c 4
 307 560 301 649 301 801 c 5
 398 801 l 5
 398 620 398 337 398 337 c 6
 398 88 346 0 198 0 c 4
 70 0 12 68 0 252 c 9
EndSplineSet
Validated: 1
EndChar

StartChar: W
Encoding: 87 87 52
Width: 498
Flags: W
HStem: 1 21G<34.1239 134.956 253.425 363> 1 21G<34.1239 134.956 253.425 363> 780 20G<0 110.292 294.124 398>
VStem: 0 110<640.2 800> 295 103<640.2 800>
LayerCount: 2
Fore
SplineSet
35 1 m 1xb8
 0 800 l 1
 110 800 l 1
 118 252 l 1
 196 402 l 1
 271 252 l 1
 295 800 l 1
 398 800 l 1
 363 1 l 1
 259 0 l 1
 196 226 l 1
 129 1 l 1
 35 1 l 1xb8
EndSplineSet
Validated: 1
EndChar

StartChar: parenleft
Encoding: 40 40 53
Width: 498
Flags: W
HStem: -42 88<198.365 298> 736 103<189.559 298>
VStem: 0 94<204.147 597.101>
LayerCount: 2
Fore
SplineSet
227 -42 m 6
 146 -42 0 14 0 399 c 0
 0 783 146 839 227 839 c 6
 298 839 l 5
 298 736 l 5
 296 736 292 736 273 736 c 4
 212 736 94 729 94 399 c 0
 94 71 215 46 273 46 c 6
 298 46 l 5
 298 -42 l 5
 227 -42 l 6
EndSplineSet
Validated: 1
EndChar

StartChar: parenright
Encoding: 41 41 54
Width: 498
Flags: W
HStem: -42 88<200 299.635> 736 103<200 308.441>
VStem: 404 94<204.147 597.101>
LayerCount: 2
Fore
SplineSet
271 -42 m 6
 200 -42 l 5
 200 46 l 5
 225 46 l 6
 283 46 404 71 404 399 c 0
 404 729 286 736 225 736 c 4
 206 736 202 736 200 736 c 5
 200 839 l 5
 271 839 l 6
 352 839 498 783 498 399 c 0
 498 14 352 -42 271 -42 c 6
EndSplineSet
Validated: 1
EndChar

StartChar: bracketleft
Encoding: 91 91 55
Width: 498
Flags: W
HStem: -95 99<108.73 298> 803 103<115.229 298>
VStem: 0 87<152.129 649.736>
LayerCount: 2
Fore
SplineSet
227 -95 m 2
 182 -95 158 -98 64 -98 c 3
 10 -98 0 26 0 399 c 0
 0 412 0 425 -0 438 c 0
 0 851 1 903 64 903 c 7
 71 903 221 906 227 906 c 6
 298 906 l 5
 298 803 l 5
 296 803 292 803 273 803 c 4
 254 803 170 798 142 798 c 7
 92 798 87 700 87 399 c 3
 87 77 90 2 142 2 c 3
 222 2 240 4 273 4 c 2
 298 4 l 1
 298 -95 l 1
 227 -95 l 2
EndSplineSet
Validated: 1
EndChar

StartChar: bracketright
Encoding: 93 93 56
Width: 498
Flags: W
HStem: -95 99<200 389.27> 803 103<200 382.771>
VStem: 411 87<152.129 649.736>
LayerCount: 2
Fore
SplineSet
271 -95 m 2
 200 -95 l 1
 200 4 l 1
 225 4 l 2
 258 4 276 2 356 2 c 3
 408 2 411 77 411 399 c 3
 411 700 406 798 356 798 c 7
 328 798 244 803 225 803 c 4
 206 803 202 803 200 803 c 5
 200 906 l 5
 271 906 l 6
 277 906 427 903 434 903 c 7
 497 903 498 851 498 438 c 0
 498 425 498 412 498 399 c 0
 498 26 488 -98 434 -98 c 3
 340 -98 316 -95 271 -95 c 2
EndSplineSet
Validated: 1
EndChar

StartChar: backslash
Encoding: 92 92 57
Width: 498
Flags: W
HStem: 1 21G<241.05 368> 1 21G<241.05 368> 781 20G<-30 92.075>
LayerCount: 2
Fore
SplineSet
-30 801 m 1xa0
 85 801 l 1
 368 1 l 1
 248 1 l 5
 -30 801 l 1xa0
EndSplineSet
Validated: 1
EndChar

StartChar: bar
Encoding: 124 124 58
Width: 498
Flags: W
VStem: 157 89<-103 390 489 903>
LayerCount: 2
Fore
SplineSet
246 903 m 9
 246 489 l 1
 157 489 l 1
 157 903 l 1
 246 903 l 9
246 390 m 5
 246 -103 l 1
 157 -103 l 1
 157 390 l 1
 246 390 l 5
EndSplineSet
Validated: 1
EndChar

StartChar: slash
Encoding: 47 47 59
Width: 498
Flags: W
HStem: 1 21G<-30 96.95> 1 21G<-30 96.95> 781 20G<245.925 368>
LayerCount: 2
Fore
SplineSet
368 801 m 1xa0
 90 1 l 5
 -30 1 l 1
 253 801 l 1
 368 801 l 1xa0
EndSplineSet
Validated: 1
EndChar

StartChar: exclam
Encoding: 33 33 60
Width: 498
Flags: W
HStem: -1 190<145.28 259.185> 780 20G<145 260>
VStem: 105 192<38.0107 148.711> 145 115<271 800>
LayerCount: 2
Fore
SplineSet
105 93 m 3xe0
 105 142 153 189 202 189 c 3
 251 189 297 144 297 95 c 7
 297 46 253 -1 204 -1 c 3
 155 -1 105 44 105 93 c 3xe0
145 800 m 1xd0
 260 800 l 1
 260 271 l 1
 145 271 l 1
 145 800 l 1xd0
EndSplineSet
Validated: 1
EndChar

StartChar: one
Encoding: 49 49 61
Width: 498
Flags: W
HStem: 1 93<0 147 255 398> 781 20G<146 255>
VStem: 147 108<94 678>
LayerCount: 2
Fore
SplineSet
0 718 m 1
 146 800 l 1
 255 801 l 1
 255 94 l 1
 398 94 l 1
 398 1 l 1
 0 1 l 1
 0 94 l 1
 147 94 l 1
 146 678 l 5
 0 595 l 5
 0 718 l 1
EndSplineSet
Validated: 1
EndChar

StartChar: two
Encoding: 50 50 62
Width: 498
Flags: W
HStem: 0 104<141 390> 699 102<138.734 260.509>
VStem: 286 112<473.904 671.653>
LayerCount: 2
Fore
SplineSet
0 0 m 1
 0 104 l 1
 158 269 286 444 286 572 c 27
 286 689 244 699 200 699 c 7
 140 699 117 653 0 555 c 5
 0 680 l 1
 89 755 121 801 198 801 c 3
 303 801 398 714 398 580 c 27
 398 453 296 299 141 104 c 1
 390 104 l 1
 390 0 l 1
 0 0 l 1
EndSplineSet
Validated: 1
EndChar

StartChar: three
Encoding: 51 51 63
Width: 498
Flags: W
HStem: 0 86<157.187 259.343> 699 101<135.166 261.758>
VStem: 302 94<131.155 289.871 505.765 657.693>
LayerCount: 2
Fore
SplineSet
303 401 m 5
 358 355 396 279 396 215 c 4
 396 99 312 0 213 0 c 4
 137 0 49 72 1 174 c 5
 101 174 l 5
 129 122 174 86 210 86 c 4
 259 86 302 141 302 204 c 4
 302 286 255 321 206 405 c 5
 255 473 304 514 304 583 c 4
 304 654 261 699 191 699 c 4
 160 699 121 675 98 641 c 5
 98 641 31 641 0 641 c 5
 1 642 79 800 191 800 c 4
 304 800 398 693 398 565 c 4
 398 514 358 445 303 401 c 5
EndSplineSet
Validated: 1
EndChar

StartChar: four
Encoding: 52 52 64
Width: 498
Flags: W
HStem: 0 21G<194.081 305> 0 21G<194.081 305> 246 98<106 195 303 398> 781 20G<179.772 303>
VStem: 195 108<1 246 344 589>
LayerCount: 2
Fore
SplineSet
0 252 m 1x78
 0 344 l 1
 188 801 l 1
 303 801 l 1
 303 344 l 1
 398 344 l 5
 398 246 l 5
 303 246 l 1
 303 226 303 209 303 193 c 0
 303 125 304 84 305 1 c 1
 194 0 l 1
 195 246 l 1
 0 246 l 1
 0 252 l 1x78
195 344 m 1
 199 589 l 1
 106 344 l 1
 195 344 l 1
EndSplineSet
Validated: 1
EndChar

StartChar: five
Encoding: 53 53 65
Width: 498
Flags: W
HStem: 0 124<111.642 232.36> 388 127<137 232.08> 698 102<137 344>
VStem: 31 106<515 698> 280 118<177.263 336.451>
LayerCount: 2
Fore
SplineSet
398 263 m 7
 398 132 301 0 176 0 c 7
 80 0 0 103 0 103 c 5
 56 197 l 5
 91 168 114 124 178 124 c 7
 219 124 280 164 280 266 c 7
 280 342 218 388 183 388 c 6
 31 388 l 5
 31 800 l 5
 344 800 l 5
 344 774 344 757 344 744 c 4
 344 719 344 713 344 699 c 5
 290 698 179 698 137 698 c 5
 137 515 l 5
 194 515 l 6
 268 515 398 394 398 263 c 7
EndSplineSet
Validated: 1
EndChar

StartChar: seven
Encoding: 55 55 66
Width: 498
Flags: W
HStem: 0 21G<0 110.375> 0 21G<0 110.375> 698 102<0 264>
LayerCount: 2
Fore
SplineSet
0 0 m 1xa0
 264 699 l 1
 0 698 l 1
 0 800 l 1
 398 800 l 1
 103 0 l 1
 0 0 l 1xa0
EndSplineSet
Validated: 1
EndChar

StartChar: eight
Encoding: 56 56 67
Width: 498
Flags: W
HStem: 0 130<141.957 256.005> 362 175<147.521 237.25> 685 113<147.36 236.985>
VStem: 0 100<173.798 318.938> 33 96<555.174 665.976> 255 96<554.821 665.563> 298 100<173.552 318.815>
LayerCount: 2
Fore
SplineSet
298 245 m 4xf2
 298 315 253 362 199 362 c 4
 144 362 100 313 100 245 c 4
 100 176 146 130 199 130 c 4
 251 130 298 174 298 245 c 4xf2
255 610 m 4xec
 255 655 226 685 192 685 c 4
 157 685 129 653 129 610 c 4
 129 566 158 537 192 537 c 4
 226 537 255 564 255 610 c 4xec
33 610 m 4
 33 723 101 798 192 798 c 4
 283 798 351 722 351 610 c 4xec
 351 546 328 491 292 456 c 5
 356 419 398 343 398 245 c 4
 398 105 313 0 199 0 c 4
 86 0 0 104 0 245 c 4xf2
 0 339 38 413 97 451 c 5
 58 486 33 542 33 610 c 4
EndSplineSet
Validated: 1
EndChar

StartChar: zero
Encoding: 48 48 68
Width: 498
Flags: W
HStem: 0 116<136.426 258.509> 693 106<147.587 254.826>
VStem: 0 102<318.213 593.143> 298 100<200.347 499.545>
LayerCount: 2
Fore
SplineSet
0 412 m 0
 0 637 83 799 198 799 c 0
 326 799 398 659 398 412 c 0
 398 150 325 0 198 0 c 0
 71 0 0 147 0 412 c 0
276 638 m 1
 261 678 236 693 198 693 c 0
 127 693 102 612 102 417 c 0
 102 415 102 414 102 412 c 0
 102 407 102 403 102 398 c 0
 102 365 102 335 103 309 c 1
 276 638 l 1
296 506 m 1
 121 161 l 1
 135 126 159 116 198 116 c 0
 282 116 298 174 298 412 c 0
 298 447 297 478 296 506 c 1
EndSplineSet
Validated: 1
EndChar

StartChar: nine
Encoding: 57 57 69
Width: 498
Flags: W
HStem: 0 21G<139 220> 0 21G<139 220> 341 97<140.361 235.434> 670 130<141.995 256.043>
VStem: 0 100<480.174 626.448> 298 100<481.335 624.084>
LayerCount: 2
Fore
SplineSet
100 555 m 0x3c
 100 485 145 438 199 438 c 0
 254 438 298 487 298 555 c 0
 298 624 252 670 199 670 c 0
 147 670 100 626 100 555 c 0x3c
139 0 m 1xbc
 139 0 93 34 53 65 c 1
 194 222 261 375 261 375 c 1
 230 361 212 344 176 341 c 0
 173 341 170 341 167 341 c 0
 86 341 0 420 0 555 c 0
 0 695 85 800 199 800 c 0
 312 800 398 696 398 555 c 2
 398 554 l 1
 398 545 398 536 398 527 c 0
 398 272 301 201 139 0 c 1xbc
EndSplineSet
Validated: 1
EndChar

StartChar: six
Encoding: 54 54 70
Width: 498
Flags: W
HStem: 0 130<141.957 256.005> 362 97<162.566 257.639> 780 20G<178 259>
VStem: 0 100<175.916 318.665> 298 100<173.552 319.826>
LayerCount: 2
Fore
SplineSet
298 245 m 0
 298 315 253 362 199 362 c 0
 144 362 100 313 100 245 c 0
 100 176 146 130 199 130 c 0
 251 130 298 174 298 245 c 0
259 800 m 1
 259 800 305 766 345 735 c 1
 204 578 137 425 137 425 c 1
 168 439 186 456 222 459 c 0
 225 459 228 459 231 459 c 0
 312 459 398 380 398 245 c 0
 398 105 313 0 199 0 c 0
 86 0 0 104 0 245 c 2
 0 246 l 1
 0 255 0 264 -0 273 c 0
 0 528 97 599 259 800 c 1
EndSplineSet
Validated: 1
EndChar

StartChar: numbersign
Encoding: 35 35 71
Width: 498
Flags: W
HStem: 1 21G<69 142.295 232 304.866> 1 21G<69 142.295 232 304.866> 278 72<174.625 245 319 398> 279 85<0 82 164 230.111> 509 69<0 93 178 256 329 398> 781 20G<106.013 192 269.009 339>
VStem: 82 77<248.111 279 361 433.5> 93 80<475.444 509 579 660.789> 232 72<1 150.154> 270 69<659.727 801>
LayerCount: 2
Fore
SplineSet
316 278 m 1x2d40
 304 1 l 1
 232 1 l 1
 245 278 l 1xac80
 159 279 l 1
 141 1 l 1
 69 1 l 1
 82 279 l 1
 0 279 l 1
 0 364 l 1x9e80
 86 361 l 1
 93 509 l 1
 0 509 l 1
 0 578 l 1
 96 578 l 1
 107 801 l 1
 192 801 l 1
 178 579 l 1
 259 579 l 1
 270 801 l 1
 339 801 l 1
 329 580 l 1
 398 580 l 1
 398 508 l 1
 326 508 l 1
 319 353 l 1
 398 350 l 1
 398 278 l 1
 316 278 l 1x2d40
249 355 m 1
 256 508 l 1
 173 509 l 1x0d
 164 358 l 1
 249 355 l 1
EndSplineSet
Validated: 1
EndChar

StartChar: dollar
Encoding: 36 36 72
Width: 498
Flags: W
HStem: 0 21G<159 238> 0 21G<159 238> 654 83<126.902 159> 780 20G<159 238>
VStem: 0 109<536.11 638.704> 159 79<0 65.9031 184 328 509 637 732.282 800> 291 107<178.586 278.059>
LayerCount: 2
Fore
SplineSet
389 559 m 5xbe
 281 559 l 5
 281 559 270 608 238 637 c 5
 238 455 l 5
 315 406 398 350 398 254 c 4
 398 188 360 77 238 62 c 5
 238 0 l 5
 159 0 l 5
 159 66 l 5
 23 99 8 262 8 262 c 5
 126 262 l 5
 126 262 130 214 159 184 c 5
 159 380 l 5
 82 428 0 485 0 571 c 4
 0 651 71 721 159 737 c 5
 159 800 l 5
 238 800 l 5
 238 735 l 5
 360 707 389 559 389 559 c 5xbe
159 654 m 5
 133 646 109 626 109 591 c 4
 109 559 129 533 159 509 c 5
 159 654 l 5
238 161 m 5
 285 171 291 216 291 240 c 4
 291 250 290 256 290 256 c 6
 290 282 269 305 238 328 c 5
 238 161 l 5
EndSplineSet
Validated: 1
EndChar

StartChar: percent
Encoding: 37 37 73
Width: 498
Flags: W
HStem: 0 78<235.727 322.326> 217 71<234.533 320.162> 510 78<79.727 165.625> 727 71<79.4747 164.162>
VStem: 3 60<603.937 711.387> 159 60<93.9368 179.297> 181 60<614.438 711.027> 337 60<93.5999 201.027>
LayerCount: 2
Fore
SplineSet
337 146 m 0xfd
 337 188 310 217 278 217 c 0
 244 217 219 187 219 146 c 0
 219 105 247 78 278 78 c 0
 309 78 337 103 337 146 c 0xfd
181 656 m 0xfb
 181 698 154 727 122 727 c 0
 88 727 63 697 63 656 c 0
 63 615 91 588 122 588 c 0
 153 588 181 613 181 656 c 0xfb
3 656 m 0
 3 740 54 798 122 798 c 0
 190 798 241 740 241 656 c 0xfb
 241 641 239 627 236 614 c 1
 309 802 l 1
 398 802 l 1
 183 234 l 1
 204 268 238 288 278 288 c 0
 346 288 397 230 397 146 c 0
 397 62 346 0 278 0 c 0
 211 0 159 62 159 146 c 0
 159 158 160 169 162 180 c 1
 94 1 l 1
 0 1 l 1
 219 569 l 1xfd
 198 533 163 510 122 510 c 0
 55 510 3 572 3 656 c 0
EndSplineSet
Validated: 1
EndChar

StartChar: question
Encoding: 63 63 74
Width: 498
Flags: W
HStem: -1 190<143.28 257.185> 702 98<144.049 274.78>
VStem: 103 192<38.0107 148.711> 145 107<259.043 435.264> 297 101<559.335 679.343>
LayerCount: 2
Fore
SplineSet
103 93 m 7xe8
 103 142 151 189 200 189 c 7
 249 189 295 144 295 95 c 7
 295 46 251 -1 202 -1 c 7
 153 -1 103 44 103 93 c 7xe8
104 631 m 6
 0 634 l 6
 0 634 75 800 201 800 c 7
 309 800 398 735 398 607 c 7
 398 524 252 464 252 379 c 28
 252 318 253 259 253 259 c 5
 142 259 l 5
 142 259 145 318 145 379 c 28xd8
 145 462 297 544 297 607 c 7
 297 679 271 702 201 702 c 7
 133 702 104 631 104 631 c 6
EndSplineSet
Validated: 1
EndChar

StartChar: braceleft
Encoding: 123 123 75
Width: 498
Flags: W
HStem: -42 88<218.957 298> 736 103<212.455 298>
VStem: 0 109<370.925 432.751> 94 94<91.8967 326.822 476.764 702.585>
LayerCount: 2
Fore
SplineSet
226 -42 m 6xd0
 150 -42 102 -27 94 301 c 5xd0
 94 321 0 377 0 399 c 7xe0
 0 432 94 479 95 508 c 5
 106 808 152 839 226 839 c 6
 298 839 l 5
 298 736 l 5
 296 736 292 736 273 736 c 4
 265 736 258 736 252 736 c 0
 212 736 194 722 188 508 c 5xd0
 187 483 109 433 109 399 c 7xe0
 109 374 187 323 188 301 c 5
 195 50 218 46 268 46 c 0
 270 46 271 46 273 46 c 6
 298 46 l 5
 298 -42 l 5
 226 -42 l 6xd0
EndSplineSet
Validated: 1
EndChar

StartChar: braceright
Encoding: 125 125 76
Width: 498
Flags: W
HStem: -42 88<0 79.0426> 736 103<0 85.5452>
VStem: 110 94<91.8967 326.822 476.764 702.585> 189 109<370.925 432.751>
LayerCount: 2
Fore
SplineSet
72 -42 m 6xe0
 0 -42 l 5
 0 46 l 5
 25 46 l 6
 27 46 28 46 30 46 c 0
 80 46 103 50 110 301 c 5xe0
 111 323 189 374 189 399 c 7xd0
 189 433 111 483 110 508 c 5xe0
 104 722 86 736 46 736 c 0
 40 736 33 736 25 736 c 4
 6 736 2 736 0 736 c 5
 0 839 l 5
 72 839 l 6
 146 839 192 808 203 508 c 5
 204 479 298 432 298 399 c 7xd0
 298 377 204 321 204 301 c 5
 196 -27 148 -42 72 -42 c 6xe0
EndSplineSet
Validated: 1
EndChar

StartChar: less
Encoding: 60 60 77
Width: 498
Flags: W
LayerCount: 2
Fore
SplineSet
398 480 m 29
 398 369 l 29
 148 242 l 25
 398 103 l 29
 398 -5 l 29
 0 242 l 25
 398 480 l 29
EndSplineSet
Validated: 1
EndChar

StartChar: greater
Encoding: 62 62 78
Width: 498
Flags: W
HStem: 460 20G<0 33.4454>
LayerCount: 2
Fore
SplineSet
0 480 m 29
 398 242 l 25
 0 -5 l 29
 0 103 l 29
 250 242 l 25
 0 369 l 29
 0 480 l 29
EndSplineSet
Validated: 1
EndChar

StartChar: period
Encoding: 46 46 79
Width: 498
Flags: W
HStem: -1 190<143.28 257.185>
VStem: 103 192<38.0107 148.711>
LayerCount: 2
Fore
SplineSet
103 93 m 3
 103 142 151 189 200 189 c 3
 249 189 295 144 295 95 c 3
 295 46 251 -1 202 -1 c 3
 153 -1 103 44 103 93 c 3
EndSplineSet
Validated: 1
EndChar

StartChar: comma
Encoding: 44 44 80
Width: 498
Flags: W
HStem: -118 307<142.047 178>
VStem: 103 192<40.7515 148.711>
LayerCount: 2
Fore
SplineSet
103 93 m 4
 103 142 151 189 200 189 c 4
 249 189 295 144 295 95 c 4
 295 56 266 18 230 4 c 5
 178 -118 l 5
 78 -116 l 5
 123 40 l 5
 111 56 103 74 103 93 c 4
EndSplineSet
Validated: 1
EndChar

StartChar: quotesingle
Encoding: 39 39 81
Width: 498
Flags: W
HStem: 501 298
VStem: 113 94<501 600.667>
LayerCount: 2
Fore
SplineSet
94 799 m 5
 228 800 l 5
 207 501 l 5
 113 501 l 5
 94 799 l 5
EndSplineSet
Validated: 1
EndChar

StartChar: quotedbl
Encoding: 34 34 82
Width: 496
Flags: W
HStem: 501 298
VStem: 19 94<501 600.667> 183 94<501 600.667>
LayerCount: 2
Fore
SplineSet
164 799 m 5
 298 800 l 5
 277 501 l 5
 183 501 l 5
 164 799 l 5
0 799 m 5
 134 800 l 5
 113 501 l 5
 19 501 l 5
 0 799 l 5
EndSplineSet
Validated: 1
EndChar

StartChar: colon
Encoding: 58 58 83
Width: 498
Flags: W
HStem: 18 190<143.28 257.185> 267 190<143.28 257.185>
VStem: 103 192<57.0107 167.711 306.011 416.711>
LayerCount: 2
Fore
SplineSet
103 361 m 3
 103 410 151 457 200 457 c 3
 249 457 295 412 295 363 c 3
 295 314 251 267 202 267 c 3
 153 267 103 312 103 361 c 3
103 112 m 3
 103 161 151 208 200 208 c 3
 249 208 295 163 295 114 c 3
 295 65 251 18 202 18 c 3
 153 18 103 63 103 112 c 3
EndSplineSet
Validated: 1
EndChar

StartChar: semicolon
Encoding: 59 59 84
Width: 498
Flags: W
HStem: 267 190<143.28 257.185>
VStem: 103 192<58.7515 166.711 306.011 416.711>
LayerCount: 2
Fore
SplineSet
103 111 m 4
 103 160 151 207 200 207 c 4
 249 207 295 162 295 113 c 4
 295 74 266 36 230 22 c 5
 178 -100 l 5
 78 -98 l 5
 123 58 l 5
 111 74 103 92 103 111 c 4
103 361 m 7
 103 410 151 457 200 457 c 7
 249 457 295 412 295 363 c 7
 295 314 251 267 202 267 c 7
 153 267 103 312 103 361 c 7
EndSplineSet
Validated: 1
EndChar

StartChar: plus
Encoding: 43 43 85
Width: 498
Flags: W
HStem: 286 106<0 147 253 398>
VStem: 147 106<86 286 392 566>
LayerCount: 2
Fore
SplineSet
147 566 m 1
 253 566 l 1
 253 392 l 1
 398 392 l 1
 398 286 l 1
 253 286 l 1
 253 86 l 1
 147 86 l 1
 147 286 l 1
 0 286 l 1
 0 392 l 1
 147 392 l 1
 147 566 l 1
EndSplineSet
Validated: 1
EndChar

StartChar: equal
Encoding: 61 61 86
Width: 498
Flags: W
HStem: 174 113<0 398> 396 113<0 398>
LayerCount: 2
Fore
SplineSet
0 287 m 1
 398 287 l 1
 398 174 l 1
 0 174 l 1
 0 287 l 1
0 509 m 1
 398 509 l 1
 398 396 l 1
 0 396 l 1
 0 509 l 1
EndSplineSet
Validated: 1
EndChar

StartChar: hyphen
Encoding: 45 45 87
Width: 498
Flags: W
HStem: 286 106<0 398>
LayerCount: 2
Fore
SplineSet
398 392 m 1
 398 286 l 1
 0 286 l 1
 0 392 l 1
 398 392 l 1
EndSplineSet
Validated: 1
EndChar

StartChar: underscore
Encoding: 95 95 88
Width: 498
Flags: W
HStem: -106 106<-55 439>
LayerCount: 2
Fore
SplineSet
439 0 m 1
 439 -106 l 1
 -55 -106 l 1
 -55 0 l 1
 439 0 l 1
EndSplineSet
Validated: 1
EndChar

StartChar: asterisk
Encoding: 42 42 89
Width: 498
Flags: W
VStem: 169 55<86 289 396 566>
LayerCount: 2
Fore
SplineSet
169 566 m 1
 224 566 l 1
 224 392 l 1
 359 504 l 1
 398 450 l 1
 260 343 l 1
 391 261 l 1
 348 204 l 1
 224 292 l 1
 224 86 l 1
 169 86 l 1
 169 289 l 1
 45 196 l 1
 3 251 l 1
 137 342 l 1
 0 437 l 1
 38 493 l 1
 169 396 l 1
 169 566 l 1
EndSplineSet
Validated: 1
EndChar

StartChar: asciicircum
Encoding: 94 94 90
Width: 498
Flags: W
HStem: 470 331
LayerCount: 2
Fore
SplineSet
0 470 m 29
 195 801 l 29
 398 470 l 29
 290 470 l 29
 196 639 l 29
 112 470 l 29
 0 470 l 29
EndSplineSet
Validated: 1
EndChar

StartChar: ampersand
Encoding: 38 38 91
Width: 498
Flags: W
HStem: 0 101<109.651 171.996> 700 101<121.576 200.632>
VStem: 0 96<556.068 672.443> 0 88<121.851 326.768> 223 96<558.384 678.877> 298 92<0 78.2766>
LayerCount: 2
Fore
SplineSet
223 613 m 0xe8
 223 657 197 700 163 700 c 0
 128 700 96 655 96 611 c 0
 96 568 126 545 160 520 c 1
 192 549 223 566 223 613 c 0xe8
327 211 m 1
 338 168 390 25 390 0 c 1
 298 0 l 1
 298 15 277 87 271 120 c 1
 243 44 225 0 156 0 c 0
 49 0 0 104 0 233 c 0xd4
 0 339 33 406 85 459 c 1
 38 494 0 544 0 620 c 0
 0 725 72 801 163 801 c 0
 254 801 319 724 319 634 c 0
 319 548 259 482 223 447 c 1
 256 390 249 400 285 324 c 1
 306 356 339 444 339 444 c 1
 398 363 l 5
 398 363 341 236 327 211 c 1
229 242 m 1
 229 242 183 337 157 386 c 1
 116 344 88 313 88 232 c 3
 88 176 101 101 139 101 c 0
 178 101 207 181 229 242 c 1
EndSplineSet
Validated: 1
EndChar

StartChar: at
Encoding: 64 64 92
Width: 498
Flags: W
HStem: 1 78<196.089 342.196> 156 73<224.85 296.212> 558 72<223.033 296.807> 725 76<204.066 284.096>
VStem: 0 65<267.159 516.607> 132 68<254.869 535.718> 315 83<270.358 539.915>
LayerCount: 2
Fore
SplineSet
315 604 m 5
 308 643 288 725 260 725 c 4
 161 725 65 529 65 391 c 7
 65 257 144 79 261 79 c 4
 292 79 338 87 387 119 c 6
 395 124 l 5
 395 50 l 5
 389 44 377 33 327 18 c 4
 293 8 274 1 261 1 c 4
 102 1 0 264 0 391 c 7
 0 560 100 801 260 801 c 4
 309 801 326 774 349 734 c 4
 394 655 398 479 398 414 c 6
 398 391 l 6
 398 319 365 156 260 156 c 4
 170 156 132 261 132 391 c 7
 132 527 167 630 260 630 c 4
 297 630 288 625 305 612 c 4
 308 610 311 607 315 604 c 5
260 558 m 4
 206 558 199 473 199 423 c 0
 199 408 200 396 200 391 c 4
 200 389 200 387 200 384 c 0
 200 346 202 229 260 229 c 4
 308 229 315 301 315 349 c 0
 315 370 314 386 314 391 c 4
 314 401 315 416 315 434 c 0
 315 486 309 558 260 558 c 4
EndSplineSet
Validated: 1
EndChar

StartChar: asciitilde
Encoding: 126 126 93
Width: 498
Flags: W
HStem: 223 106<236.912 348.342> 321 107<50.5859 163.088>
LayerCount: 2
Fore
SplineSet
398 397 m 1x80
 398 291 l 1
 398 291 340 223 299 223 c 27x80
 220 223 180 321 101 321 c 27
 59 321 0 253 0 253 c 1
 0 359 l 1
 0 359 59 428 101 428 c 27x40
 180 428 220 329 299 329 c 27
 340 329 398 397 398 397 c 1x80
EndSplineSet
Validated: 1
EndChar

StartChar: grave
Encoding: 96 96 94
Width: 498
Flags: W
HStem: 501 299<190 228>
VStem: 94 190
LayerCount: 2
Fore
SplineSet
94 799 m 1
 228 800 l 1
 284 501 l 5
 190 501 l 5
 94 799 l 1
EndSplineSet
Validated: 1
EndChar
